:SAMPLES-PER-SECOND 30
:FULLY-SPECIFIED
:DEGREES
39
root  -32.0198 41.238 1.5251 -152.667 -88.2968 149.408
RightUpLeg  1.41704 -8.58417 -5.80115
RightLeg  7.42225 -3.62892 2.84554
RightFoot  -4.67169 -0.0107585 -0.364772
RightToes  2.91037e-010 0 -3.6325e-017
Spine  3.74102 0.517038 -1.16982
Spine1  5.9871 0.731173 -0.522503
HEad  21.9204 -1.14677 0.416453
LeftShoulder1  1.72257 -4.9083 -13.4591
LeftArm  -18.9196 17.6774 -9.10322
LeftForeArm  17.9059 -4.75997 -0.494883
LeftHand  -0.244104 0.0205437 5.32207
RightShoulder  0.938573 1.50622 11.6045
RightArm  -16.2987 -7.26182 3.05164
RightForeArm  6.04011 5.28845 3.7216
RightHand  -0.959251 1.56212 -16.111
LeftUpLeg  2.08839 4.12534 -0.0859333
LeftLeg  3.30824 13.8013 -3.93636
LeftFoot  -2.81055 -0.243709 3.49792
LeftToes  -1.10052e-010 1.3781e-010 -2.1811e-011
40
root  -32.0313 41.2372 1.53345 -152.386 -88.2836 149.152
RightUpLeg  1.38948 -8.58859 -5.82081
RightLeg  7.45333 -3.61298 2.82571
RightFoot  -4.69355 -0.0130519 -0.329155
RightToes  2.91037e-010 0 -3.6325e-017
Spine  3.83437 0.524819 -1.11855
Spine1  5.71546 0.748846 -0.573008
HEad  21.0611 -1.50422 0.019919
LeftShoulder1  1.73369 -4.97956 -13.4151
LeftArm  -18.9084 17.7729 -9.05999
LeftForeArm  17.9371 -4.63281 -0.457455
LeftHand  -0.244104 0.0205437 5.32207
RightShoulder  0.933432 1.49872 11.5259
RightArm  -16.3429 -7.33983 3.03299
RightForeArm  5.68697 5.2726 3.72077
RightHand  -0.968298 1.55244 -16.2813
LeftUpLeg  2.10424 4.08918 -0.125579
LeftLeg  3.25561 13.8447 -3.93118
LeftFoot  -2.82046 -0.24251 3.48337
LeftToes  -1.10052e-010 1.3781e-010 -2.1811e-011
41
root  -32.0464 41.2363 1.5439 -151.527 -88.3157 148.312
RightUpLeg  1.41028 -8.59445 -5.84923
RightLeg  7.43199 -3.63672 2.82546
RightFoot  -4.69121 -0.0154252 -0.292297
RightToes  2.91037e-010 0 -3.6325e-017
Spine  3.91826 0.522387 -1.06821
Spine1  5.42751 0.75201 -0.609623
HEad  20.3493 -2.1248 -0.237855
LeftShoulder1  1.74646 -5.04505 -13.4081
LeftArm  -18.7938 17.8144 -8.96027
LeftForeArm  17.8211 -4.52684 -0.47435
LeftHand  -0.244104 0.0205437 5.32207
RightShoulder  0.92864 1.49896 11.4503
RightArm  -16.3635 -7.46493 3.00462
RightForeArm  5.40301 5.24836 3.71618
RightHand  -0.982536 1.58641 -16.4386
LeftUpLeg  2.15349 4.0441 -0.161882
LeftLeg  3.15676 13.8401 -3.93103
LeftFoot  -2.81377 -0.239478 3.43931
LeftToes  -1.10052e-010 1.3781e-010 -2.1811e-011
42
root  -32.0629 41.2354 1.55268 -150.092 -88.3923 146.915
RightUpLeg  1.44353 -8.60416 -5.86932
RightLeg  7.36859 -3.70456 2.84616
RightFoot  -4.69151 -0.0158603 -0.285539
RightToes  2.91037e-010 0 -3.6325e-017
Spine  3.96616 0.506086 -1.04359
Spine1  5.13222 0.736376 -0.632888
HEad  19.7392 -2.85116 -0.321406
LeftShoulder1  1.75254 -5.08892 -13.372
LeftArm  -18.6152 17.8382 -8.87971
LeftForeArm  17.6647 -4.51639 -0.541113
LeftHand  -0.244104 0.0205437 5.32207
RightShoulder  0.928283 1.48013 11.4949
RightArm  -16.3412 -7.49422 2.88834
RightForeArm  5.5956 5.10684 3.68326
RightHand  -0.989502 1.65543 -16.3966
LeftUpLeg  2.15654 4.01564 -0.182752
LeftLeg  3.11019 13.7801 -3.92474
LeftFoot  -2.82909 -0.237654 3.41368
LeftToes  -1.10052e-010 1.3781e-010 -2.1811e-011
43
root  -32.076 41.2346 1.55868 -148.255 -88.4818 145.108
RightUpLeg  1.47256 -8.61034 -5.87957
RightLeg  7.32595 -3.7948 2.85761
RightFoot  -4.70848 -0.0162623 -0.279297
RightToes  2.91037e-010 0 -3.6325e-017
Spine  4.02568 0.481363 -1.01464
Spine1  4.79932 0.723653 -0.704852
HEad  19.3095 -3.33557 -0.286462
LeftShoulder1  1.75313 -5.13602 -13.2582
LeftArm  -18.4658 17.8584 -8.848
LeftForeArm  17.5799 -4.51909 -0.600862
LeftHand  -0.244104 0.0205437 5.32207
RightShoulder  0.939231 1.49312 11.6837
RightArm  -16.2296 -7.5036 2.68292
RightForeArm  5.8725 4.94772 3.66726
RightHand  -0.993638 1.71804 -16.324
LeftUpLeg  2.13157 3.98956 -0.20291
LeftLeg  3.12201 13.7095 -3.90084
LeftFoot  -2.85223 -0.238909 3.43758
LeftToes  -1.10052e-010 1.3781e-010 -2.1811e-011
44
root  -32.084 41.2339 1.56427 -146.923 -88.553 143.734
RightUpLeg  1.54655 -8.60765 -5.88608
RightLeg  7.31972 -3.87162 2.84633
RightFoot  -4.72062 -0.0183459 -0.246938
RightToes  2.91037e-010 0 -3.6325e-017
Spine  4.15691 0.455938 -0.939118
Spine1  4.44535 0.729771 -0.859922
HEad  19.1194 -3.46501 -0.247137
LeftShoulder1  1.74585 -5.18055 -13.0524
LeftArm  -18.4262 17.872 -8.89179
LeftForeArm  17.6065 -4.46335 -0.608753
LeftHand  -0.244104 0.0205437 5.32207
RightShoulder  0.97406 1.62296 11.9094
RightArm  -16.0519 -7.66502 2.47132
RightForeArm  5.80696 4.94542 3.69849
RightHand  -1.00293 1.75001 -16.4024
LeftUpLeg  2.1834 3.96648 -0.215768
LeftLeg  3.11961 13.6517 -3.87415
LeftFoot  -2.85738 -0.239583 3.45605
LeftToes  -1.10052e-010 1.3781e-010 -2.1811e-011
